<svg xmlns="http://www.w3.org/2000/svg" width="16" height="16" fill="white" class="bi bi-twitter" viewBox="0 0 16 16">
  <path d="M14.15 4.25c-.55.244-1.14.41-1.75.485.63-.375 1.115-.965 1.34-1.675-.59.345-1.245.595-1.945.73-.555-.595-1.35-.965-2.23-.965-1.685 0-3.05 1.365-3.05 3.05 0 .24.03.475.075.705-2.535-.13-4.785-1.34-6.3-3.19-.265.455-.415.98-.415 1.545 0 1.06.54 1.995 1.365 2.54-.5-.015-.975-.155-1.39-.39v.04c0 1.485 1.055 2.725 2.46 3-.265.07-.54.11-.82.11-.2 0-.395-.02-.59-.055.395 1.225 1.54 2.115 2.905 2.14-1.065.83-2.405 1.325-3.865 1.325-.25 0-.495-.015-.735-.045 1.375.88 3.015 1.395 4.785 1.395 5.735 0 8.88-4.755 8.88-8.88l-.01-.405c.605-.435 1.13-.98 1.545-1.605-.565.25-1.17.41-1.805.48z"/>
</svg>
